<svg width="86" height="26" viewBox="0 0 86 26" fill="none" xmlns="http://www.w3.org/2000/svg">
<path d="M35.3998 9.8623H34.6538L36.8113 3.98656H37.5458L39.7033 9.8623H38.9574L37.2015 4.91612H37.1556L35.3998 9.8623ZM35.6752 7.56709H38.6819V8.19827H35.6752V7.56709ZM41.8304 9.8623V3.98656H42.5419V6.90148H42.6108L45.2503 3.98656H46.1798L43.7125 6.63753L46.1798 9.8623H45.3191L43.2764 7.131L42.5419 7.95728V9.8623H41.8304ZM48.5537 9.8623H47.8077L49.9652 3.98656H50.6997L52.8572 9.8623H52.1112L50.3554 4.91612H50.3095L48.5537 9.8623ZM48.8291 7.56709H51.8358V8.19827H48.8291V7.56709ZM56.7975 9.8623H54.9843V3.98656H56.8778C57.4478 3.98656 57.9355 4.10419 58.341 4.33945C58.7465 4.57279 59.0573 4.90847 59.2734 5.34647C59.4896 5.78256 59.5976 6.30472 59.5976 6.91295C59.5976 7.52501 59.4886 8.05195 59.2706 8.49378C59.0525 8.9337 58.735 9.27224 58.3181 9.50942C57.9011 9.74467 57.3942 9.8623 56.7975 9.8623ZM55.6958 9.23112H56.7516C57.2374 9.23112 57.64 9.1374 57.9594 8.94996C58.2789 8.76251 58.517 8.4957 58.6738 8.1495C58.8307 7.80331 58.9091 7.39112 58.9091 6.91295C58.9091 6.43861 58.8316 6.03025 58.6767 5.68788C58.5218 5.3436 58.2903 5.07965 57.9824 4.89604C57.6744 4.71051 57.291 4.61774 56.8319 4.61774H55.6958V9.23112ZM62.003 9.8623V3.98656H65.5491V4.61774H62.7145V6.6031H65.3655V7.23428H62.7145V9.23112H65.595V9.8623H62.003ZM68.0435 3.98656H68.8927L70.8895 8.86389H70.9584L72.9552 3.98656H73.8044V9.8623H73.1388V5.39811H73.0815L71.2453 9.8623H70.6026L68.7665 5.39811H68.7091V9.8623H68.0435V3.98656ZM77.1545 3.98656V9.8623H76.4429V3.98656H77.1545Z" fill="white"/>
<path d="M37.5866 23.7764C37.418 23.7764 37.2474 23.7543 37.0748 23.7101C36.6975 23.6018 36.3402 23.4292 36.0031 23.1924C35.6659 22.9595 35.3729 22.7107 35.124 22.4458C34.6263 21.8959 34.1948 21.3259 33.8296 20.7359C33.2596 21.1533 32.6415 21.362 31.9752 21.362C31.6822 21.362 31.3691 21.3179 31.0359 21.2296C30.4619 21.065 29.9903 20.8041 29.621 20.4469C29.2558 20.0856 28.9848 19.6602 28.8082 19.1705C28.6356 18.6808 28.5493 18.167 28.5493 17.6291C28.5493 16.9709 28.6718 16.3206 28.9166 15.6784C29.1655 15.0322 29.5187 14.4722 29.9763 13.9986C30.4379 13.525 30.9918 13.2019 31.638 13.0293C31.4213 13.3704 31.2226 13.7457 31.042 14.1551C30.8613 14.5646 30.7148 14.996 30.6024 15.4496C30.4941 15.9032 30.4399 16.3628 30.4399 16.8284C30.4399 17.2338 30.49 17.6372 30.5904 18.0386C30.6506 18.2673 30.7249 18.4781 30.8132 18.6707C30.8894 18.5503 30.9918 18.4359 31.1202 18.3276C31.2527 18.2152 31.4152 18.1228 31.6079 18.0506C31.8046 17.9783 32.0354 17.9422 32.3003 17.9422C32.7418 17.9502 33.1312 18.0285 33.4683 18.177C33.8095 18.3215 34.1206 18.5162 34.4016 18.761C34.5139 18.5563 34.6123 18.3276 34.6966 18.0747C34.833 17.6492 34.9013 17.2097 34.9013 16.7561C34.9013 16.2303 34.813 15.7145 34.6364 15.2088C34.4598 14.703 34.1989 14.2595 33.8537 13.8782C33.5125 13.525 33.1131 13.1677 32.6555 12.8065L32.204 12.4332C32.0635 12.3329 31.911 12.2285 31.7464 12.1201C31.3611 11.8753 30.9938 11.6063 30.6446 11.3133C30.2954 11.0163 30.0646 10.6892 29.9522 10.3319C29.9201 10.2115 29.904 10.0951 29.904 9.98274C29.904 9.70979 29.9783 9.45692 30.1268 9.22412C30.2753 8.99131 30.4559 8.77657 30.6687 8.57989C30.8854 8.38321 31.1042 8.19858 31.3249 8.02598C31.4453 7.93366 31.5577 7.84335 31.6621 7.75504C31.5015 7.95975 31.3811 8.12633 31.3008 8.25477C31.1925 8.42335 31.1383 8.60398 31.1383 8.79664C31.1383 9.10169 31.3289 9.41879 31.7103 9.74793C31.9993 9.99678 32.3565 10.2697 32.782 10.5668C33.38 10.9762 34.0062 11.4739 34.6604 12.0599C35.2585 12.6178 35.7201 13.2179 36.0452 13.8601C36.3744 14.5023 36.5389 15.1707 36.5389 15.865C36.5389 16.2704 36.4787 16.6819 36.3583 17.0993C36.1616 17.7817 35.7362 18.5664 35.0819 19.4534C35.1903 19.5779 35.3147 19.7264 35.4552 19.899C35.985 20.5532 36.4506 21.065 36.852 21.4343C37.4621 21.9962 38.006 22.2772 38.4836 22.2772C38.7726 22.2772 39.0476 22.1608 39.3085 21.928L39.3145 22.0785C39.3145 22.4117 39.2362 22.7047 39.0797 22.9575C38.9232 23.2144 38.7124 23.4151 38.4475 23.5596C38.1866 23.7041 37.8996 23.7764 37.5866 23.7764ZM32.5833 20.0194C32.8081 20.0194 33.0328 19.9712 33.2576 19.8749C33.0649 19.5819 32.8703 19.333 32.6736 19.1283C32.4809 18.9196 32.2802 18.7751 32.0715 18.6948C31.9591 18.6547 31.8548 18.6346 31.7584 18.6346C31.6019 18.6346 31.4714 18.6788 31.3671 18.7671C31.2667 18.8554 31.2166 18.9637 31.2166 19.0922C31.2166 19.3089 31.357 19.5177 31.638 19.7184C31.9431 19.919 32.2582 20.0194 32.5833 20.0194ZM42.5417 20.9406C42.2687 20.9406 42.0158 20.8964 41.783 20.8081C41.3817 20.6596 41.1027 20.3485 40.9462 19.8749C40.6612 20.3887 40.2598 20.7178 39.742 20.8623C39.5212 20.9145 39.3005 20.9406 39.0797 20.9406C38.8068 20.9406 38.5519 20.8964 38.3151 20.8081C38.0823 20.7198 37.8936 20.5793 37.7491 20.3867C37.4802 20.0174 37.3457 19.5317 37.3457 18.9296V15.558C37.3457 15.1004 37.5564 14.7392 37.9779 14.4742L38.1645 14.3719C38.3813 14.2595 38.576 14.1391 38.7486 14.0106C38.9252 13.8782 39.0797 13.6956 39.2122 13.4628V18.7851C39.2122 18.9898 39.2282 19.1584 39.2603 19.2909C39.2924 19.4233 39.3567 19.5217 39.453 19.5859C39.5533 19.6501 39.6978 19.6822 39.8865 19.6822C40.0792 19.6822 40.2417 19.626 40.3742 19.5136C40.5066 19.3972 40.609 19.2527 40.6812 19.0802C40.7535 18.9076 40.7956 18.7269 40.8077 18.5383V15.558C40.8077 15.1004 41.0184 14.7392 41.4399 14.4742L41.6265 14.3719C41.8433 14.2595 42.0379 14.1391 42.2105 14.0106C42.3871 13.8782 42.5417 13.6956 42.6741 13.4628V18.7851C42.6741 18.9898 42.6902 19.1584 42.7223 19.2909C42.7544 19.4233 42.8186 19.5217 42.915 19.5859C43.0153 19.6501 43.1598 19.6822 43.3484 19.6822C43.5411 19.6822 43.7037 19.626 43.8361 19.5136C43.9686 19.3972 44.0709 19.2527 44.1432 19.0802C44.2154 18.9076 44.2576 18.7269 44.2696 18.5383H44.8115C44.7473 19.0681 44.6269 19.4896 44.4503 19.8026C44.1372 20.3806 43.7217 20.7339 43.2039 20.8623C42.9832 20.9145 42.7624 20.9406 42.5417 20.9406ZM46.1301 19.8388C46.1301 20.0796 46.0879 20.2743 46.0036 20.4228C45.9193 20.5713 45.811 20.6957 45.6785 20.7961C45.546 20.8924 45.3995 20.9847 45.239 21.073C45.0584 21.1694 44.8817 21.2818 44.7091 21.4102C44.5406 21.5427 44.3921 21.7173 44.2636 21.934V17.882C44.2636 17.6532 44.2756 17.4365 44.2997 17.2318C44.372 16.734 44.5305 16.3186 44.7754 15.9855C45.0242 15.6523 45.3132 15.3734 45.6424 15.1486C45.9755 14.9238 46.3067 14.7271 46.6358 14.5585C46.9609 14.39 47.2399 14.2214 47.4727 14.0528C47.7095 13.8842 47.862 13.6895 47.9303 13.4688C48.151 13.6253 48.3477 13.7758 48.5203 13.9203C48.7652 14.1331 48.9458 14.3578 49.0622 14.5947C49.1786 14.8275 49.2368 15.0542 49.2368 15.275C49.2368 15.6082 49.1204 15.8931 48.8876 16.13C48.6588 16.3628 48.3417 16.4792 47.9363 16.4792C47.9363 16.2624 47.8921 16.0557 47.8038 15.859C47.7195 15.6583 47.5811 15.5078 47.3884 15.4075C47.276 15.3473 47.1596 15.3172 47.0392 15.3172C46.9308 15.3172 46.8144 15.3473 46.69 15.4075C46.4973 15.5078 46.3568 15.6583 46.2685 15.859C46.1802 16.0557 46.1361 16.2624 46.1361 16.4792L46.1301 17.3522V19.8388ZM54.4688 20.9526C54.0474 20.9526 53.7162 20.8462 53.4754 20.6335C53.2386 20.4208 53.072 20.1298 52.9757 19.7605C52.8151 20.1177 52.6004 20.4067 52.3315 20.6275C52.0666 20.8442 51.7234 20.9526 51.3019 20.9526C51.0089 20.9526 50.7299 20.8984 50.465 20.7901C50.2041 20.6777 49.9673 20.5111 49.7546 20.2903C49.5178 20.0375 49.3391 19.7404 49.2187 19.3993C49.1023 19.0581 49.0441 18.7109 49.0441 18.3577C49.0441 18.1449 49.0662 17.9342 49.1103 17.7255C49.2548 17.1154 49.5198 16.6197 49.9051 16.2383C50.2904 15.857 50.746 15.5239 51.2718 15.2389C51.5407 15.0904 51.8257 14.9419 52.1268 14.7933C52.6445 14.5485 53.1322 14.2756 53.5898 13.9745C54.0514 13.6695 54.3825 13.3002 54.5832 12.8667V18.7972C54.5832 19.0019 54.5993 19.1705 54.6314 19.3029C54.6635 19.4354 54.7277 19.5337 54.8241 19.5979C54.9244 19.6622 55.0689 19.6943 55.2576 19.6943C55.4502 19.6943 55.6128 19.6381 55.7453 19.5257C55.8777 19.4093 55.9801 19.2648 56.0523 19.0922C56.1246 18.9196 56.1667 18.739 56.1788 18.5503H56.7206C56.6564 19.0802 56.536 19.5016 56.3594 19.8147C56.2149 20.0836 56.0383 20.3104 55.8295 20.495C55.4924 20.8001 55.0388 20.9526 54.4688 20.9526ZM51.8137 19.7123C51.9221 19.7123 52.0405 19.6822 52.1689 19.622C52.3696 19.5177 52.5101 19.3631 52.5904 19.1584C52.6747 18.9537 52.7168 18.741 52.7168 18.5202V15.3292L52.3917 15.5158C51.902 15.7968 51.5508 16.0958 51.338 16.4129C51.0611 16.8264 50.9226 17.3943 50.9226 18.1168C50.9226 18.7109 51.051 19.1624 51.3079 19.4715C51.4404 19.6321 51.609 19.7123 51.8137 19.7123ZM58.0512 19.8388C58.0512 20.0796 58.0091 20.2743 57.9248 20.4228C57.8405 20.5713 57.7321 20.6957 57.5997 20.7961C57.4672 20.8924 57.3207 20.9847 57.1601 21.073C56.9795 21.1694 56.8029 21.2818 56.6303 21.4102C56.4617 21.5427 56.3112 21.7173 56.1788 21.934V17.6532C56.2028 16.9909 56.3694 16.4531 56.6785 16.0397C56.9916 15.6222 57.3327 15.2991 57.702 15.0703C57.9067 14.9378 58.1395 14.8014 58.4004 14.6609C58.7296 14.4883 59.0326 14.3057 59.3096 14.113C59.5865 13.9163 59.7631 13.7036 59.8394 13.4748C60.594 13.9966 61.0917 14.5104 61.3325 15.0161C61.5774 15.5178 61.6998 16.144 61.6998 16.8946C61.7078 17.2719 61.7119 17.6512 61.7119 18.0325V18.7912C61.7119 18.9959 61.7279 19.1644 61.76 19.2969C61.7921 19.4294 61.8564 19.5277 61.9527 19.5919C62.049 19.6561 62.1935 19.6883 62.3862 19.6883C62.5789 19.6883 62.7394 19.6321 62.8679 19.5197C63.0003 19.4033 63.1027 19.2588 63.1749 19.0862C63.2472 18.9136 63.2913 18.733 63.3074 18.5443H63.8492C63.777 19.0741 63.6566 19.4956 63.488 19.8087C63.3435 20.0776 63.1669 20.3044 62.9582 20.489C62.7535 20.6737 62.5146 20.7981 62.2417 20.8623C62.0169 20.9145 61.7941 20.9406 61.5734 20.9406C61.3004 20.9406 61.0456 20.8984 60.8087 20.8141C60.5759 20.7258 60.3873 20.5853 60.2428 20.3927C59.9779 20.0234 59.8454 19.5377 59.8454 18.9357V16.4792C59.8454 16.2664 59.8013 16.0597 59.713 15.859C59.6247 15.6583 59.4842 15.5098 59.2915 15.4135C59.1791 15.3533 59.0627 15.3232 58.9423 15.3232C58.8339 15.3232 58.7175 15.3533 58.5931 15.4135C58.4004 15.5098 58.2599 15.6583 58.1716 15.859C58.0873 16.0597 58.0452 16.2664 58.0452 16.4792L58.0512 18.3817V19.8388ZM65.6133 20.9526C65.2722 20.9526 64.947 20.8944 64.638 20.778C64.3289 20.6616 64.06 20.487 63.8312 20.2542C63.494 19.8889 63.3194 19.4474 63.3074 18.9296L63.3134 12.385C63.3335 11.9194 63.5442 11.5682 63.9456 11.3314L64.1382 11.223C64.351 11.1106 64.5436 10.9902 64.7162 10.8618C64.8888 10.7333 65.0414 10.5547 65.1738 10.3259V14.8415C65.3464 14.7412 65.517 14.6468 65.6856 14.5585C66.0067 14.39 66.2836 14.2234 66.5164 14.0588C66.7493 13.8902 66.8998 13.6956 66.968 13.4748C67.7226 13.9966 68.2203 14.5104 68.4612 15.0161C68.706 15.5178 68.8284 16.144 68.8284 16.8946L68.8345 17.1956C68.8345 17.6853 68.7823 18.1509 68.6779 18.5925C68.5776 19.03 68.3909 19.4253 68.118 19.7786C67.8491 20.1278 67.4677 20.4188 66.974 20.6516C66.5205 20.8523 66.0669 20.9526 65.6133 20.9526ZM65.8361 19.6943C66.3137 19.6943 66.6369 19.3631 66.8054 18.7008C66.9178 18.2593 66.974 17.6653 66.974 16.9187V16.4792C66.974 16.2664 66.9299 16.0597 66.8416 15.859C66.7533 15.6583 66.6128 15.5098 66.4201 15.4135C66.3077 15.3533 66.1933 15.3232 66.0769 15.3232C65.9686 15.3232 65.8522 15.3533 65.7277 15.4135C65.5351 15.5098 65.3946 15.6583 65.3063 15.859C65.218 16.0597 65.1738 16.2664 65.1738 16.4792L65.1678 18.5082C65.1678 18.6968 65.1818 18.8835 65.2099 19.0681C65.238 19.2487 65.2982 19.3993 65.3906 19.5197C65.4869 19.6361 65.6354 19.6943 65.8361 19.6943ZM71.4896 17.8579L71.8027 17.6893C71.9151 17.6332 72.0496 17.5589 72.2061 17.4666C72.467 17.3141 72.6958 17.1174 72.8925 16.8765C73.0932 16.6357 73.1935 16.3869 73.1935 16.13C73.1935 15.9534 73.1293 15.7828 73.0008 15.6182C72.8162 15.4215 72.6135 15.3232 72.3927 15.3232C72.2442 15.3232 72.0997 15.3673 71.9592 15.4556C71.8228 15.5439 71.7104 15.6744 71.6221 15.847C71.5338 16.0196 71.4896 16.2303 71.4896 16.4792V17.8579ZM72.3446 20.9647H72.2121C71.7385 20.9647 71.303 20.8543 70.9056 20.6335C70.5082 20.4087 70.1952 20.0575 69.9664 19.5799C69.7376 19.0581 69.6232 18.5262 69.6232 17.9844V17.6773C69.6232 17.2197 69.6954 16.8264 69.8399 16.4972C69.9844 16.1681 70.1731 15.8851 70.4059 15.6483C70.6427 15.4115 70.8976 15.2068 71.1705 15.0342C71.4475 14.8616 71.7204 14.705 71.9893 14.5646C72.3105 14.396 72.5894 14.2274 72.8262 14.0588C73.0631 13.8902 73.2156 13.6956 73.2838 13.4748C73.4885 13.6193 73.6752 13.7598 73.8438 13.8963C74.3816 14.3619 74.6505 14.9278 74.6505 15.5941L74.6385 15.8169C74.5943 16.2223 74.4639 16.5675 74.2471 16.8525C74.0344 17.1374 73.7695 17.3863 73.4524 17.599C73.1393 17.8078 72.8122 18.0044 72.471 18.1891C72.0817 18.4018 71.8428 18.5363 71.7545 18.5925L71.598 18.6828C71.6903 19.1123 71.8549 19.4253 72.0917 19.622C72.3285 19.8147 72.6035 19.913 72.9166 19.917L73.0731 19.9231C73.5949 19.9231 74.0926 19.8147 74.5662 19.5979C75.0399 19.3772 75.4152 19.028 75.6921 18.5503H76.1317C75.947 19.0521 75.652 19.4795 75.2466 19.8327C74.8452 20.182 74.3896 20.4529 73.8799 20.6456C73.3701 20.8342 72.8583 20.9406 72.3446 20.9647ZM78.0703 20.9406C77.6328 20.9406 77.2214 20.8663 76.8361 20.7178C76.3424 20.5091 75.9711 20.2 75.7222 19.7906C75.5657 19.5337 75.4874 19.2728 75.4874 19.0079C75.4914 18.6988 75.5677 18.4199 75.7162 18.171C75.9169 17.8619 76.2119 17.6231 76.6013 17.4545C76.7056 17.4104 76.7779 17.3883 76.818 17.3883C76.8381 17.3883 76.8481 17.3963 76.8481 17.4124C76.8481 17.4284 76.8361 17.4565 76.812 17.4967C76.7879 17.5368 76.7658 17.583 76.7458 17.6352C76.7056 17.7235 76.6856 17.8338 76.6856 17.9663C76.6856 18.3436 76.8381 18.6948 77.1431 19.0199C77.396 19.2527 77.7252 19.4013 78.1306 19.4655C78.2389 19.4815 78.3493 19.4896 78.4617 19.4896C78.7587 19.4896 79.0477 19.4414 79.3287 19.3451C79.5093 19.2808 79.6618 19.2026 79.7863 19.1103C79.9147 19.0179 79.9789 18.9196 79.9789 18.8152C79.9709 18.6948 79.8766 18.5724 79.696 18.448C79.4672 18.2874 78.9775 18.0265 78.2269 17.6653C77.978 17.5448 77.7352 17.4244 77.4984 17.304C77.1452 17.1194 76.6655 16.8585 76.0594 16.5213L76.1738 16.3286L76.8843 14.968C77.2856 14.9358 77.6629 14.8275 78.0162 14.6428C78.2209 14.5465 78.4055 14.4361 78.5701 14.3117C78.7387 14.1873 78.8751 14.0548 78.9795 13.9143C79.0879 13.7698 79.1782 13.6213 79.2504 13.4688L79.2625 13.4929C79.3749 13.6414 79.4652 13.822 79.5334 14.0347C79.5695 14.1632 79.5876 14.3037 79.5876 14.4562C79.5876 14.5886 79.5695 14.7211 79.5334 14.8536C79.3688 15.3031 79.116 15.6463 78.7748 15.8831C78.9273 15.9794 79.1119 16.0878 79.3287 16.2082C79.5695 16.3327 79.8344 16.4952 80.1234 16.6959C80.2679 16.7923 80.4024 16.9046 80.5268 17.0331C80.8158 17.3301 80.9603 17.7315 80.9603 18.2372C80.9603 18.4098 80.9443 18.5844 80.9122 18.761C80.8479 19.2066 80.6432 19.618 80.298 19.9953C80.1174 20.188 79.8987 20.3626 79.6418 20.5191C79.1802 20.8001 78.6564 20.9406 78.0703 20.9406ZM83.5312 20.9406C82.8649 20.9406 82.3973 20.7579 82.1284 20.3927C81.8634 20.0234 81.731 19.5357 81.731 18.9296V14.7211H80.9904L81.1169 14.4381C81.2574 14.1852 81.4621 14.0588 81.731 14.0588V13.7819C81.731 13.3203 81.9417 12.959 82.3632 12.6981L82.5619 12.5897C82.7746 12.4774 82.9673 12.3569 83.1399 12.2285C83.3124 12.1 83.465 11.9194 83.5974 11.6866V14.0588H84.5186L84.3922 14.3358C84.2557 14.5927 84.055 14.7211 83.7901 14.7211H83.5974V18.7851C83.5974 19.1303 83.6436 19.3671 83.7359 19.4956C83.8322 19.62 84.0109 19.6822 84.2718 19.6822C84.5327 19.6822 84.7434 19.5739 84.9039 19.3571C85.0685 19.1363 85.1648 18.8634 85.1929 18.5383H85.7348C85.6024 19.4976 85.2873 20.1619 84.7895 20.5312C84.4283 20.8041 84.0089 20.9406 83.5312 20.9406Z" fill="white"/>
<path d="M19.3413 25.7641V13.3185C19.3413 11.0863 18.4684 8.99126 16.8971 7.4075L12.1333 2.64375L7.86114 7.4075C6.27738 8.99126 5.41692 11.0863 5.41692 13.3185V25.7641H0L3.53386 24.0303V13.3185C3.53386 10.5875 4.59386 8.01855 6.52679 6.08562L12.1209 0L18.2065 6.08562C20.1394 8.01855 21.1994 10.5875 21.1994 13.3185V24.0303L24.5989 25.7641H19.3413Z" fill="white"/>
<path d="M10.6271 6.15704L9.375 7.40918L10.6271 8.66132L11.8793 7.40918L10.6271 6.15704Z" fill="#FF9064"/>
<path d="M12.3615 4.42364L11.1094 5.67578L12.3615 6.92792L13.6137 5.67578L12.3615 4.42364Z" fill="#FF9064"/>
<path d="M16.3637 8.40769L14.4932 6.53711L10.8143 10.2159C10.2532 10.7771 9.94141 11.5253 9.94141 12.311C9.94141 13.0966 10.2532 13.8448 10.8143 14.406L13.2586 16.8502L12.2609 17.8479L9.49247 15.0794C8.03342 13.6204 8.03342 11.251 9.49247 9.79192L9.97882 9.30557L8.73177 8.05851L8.24542 8.54486C6.10049 10.6898 6.10049 14.194 8.24542 16.3389L12.2609 20.3545L16.2889 16.3265L16.2764 16.314L16.3887 16.2018C18.5211 14.0319 18.4962 10.5402 16.3637 8.40769ZM15.2164 14.8051L14.4932 15.5284L12.4979 13.5331C12.1736 13.2088 11.999 12.7848 11.999 12.3234C11.999 11.862 12.1736 11.438 12.4979 11.1138L14.4932 9.11851L15.2164 9.8418C16.5882 11.1886 16.5882 13.4333 15.2164 14.8051Z" fill="white"/>
<path d="M8.75293 17.9209V25.7197H6.88281V15.9756L8.75293 17.9209ZM17.9062 25.7188H16.0234V17.9209L17.9062 15.9756V25.7188Z" fill="white"/>
<path d="M12.2486 21.2045L10.7305 22.7227L12.2486 24.2408L13.7668 22.7227L12.2486 21.2045Z" fill="#FF9064"/>
</svg>
